<?xml version="1.0" encoding="utf-8"?><svg width="20" height="38" viewBox="0 0 20 38" xmlns="http://www.w3.org/2000/svg" xmlns:xlink="http://www.w3.org/1999/xlink"><svg width="18" height="18" fill="none" viewBox="0 0 18 18" id="icon-moon" xmlns="http://www.w3.org/2000/svg"><path d="M15.566 15.33a9.074 9.074 0 002.42-4.327c.108-.454-.45-.761-.779-.43l-.012.012a6.91 6.91 0 01-9.93-.16A6.9 6.9 0 017.435.79c.33-.328.022-.884-.43-.776A9.068 9.068 0 002.712 2.4a9.103 9.103 0 00-.044 12.92 9.112 9.112 0 0012.898.009z" fill="#fff"/></svg><svg width="20" height="20" fill="none" viewBox="0 0 20 20" id="sun-icon" y="18" xmlns="http://www.w3.org/2000/svg"><path fill-rule="evenodd" clip-rule="evenodd" d="M9.6 3.721h.8a.457.457 0 00.456-.456V.457A.457.457 0 0010.4 0h-.8a.457.457 0 00-.456.457v2.808c0 .252.204.456.457.456zm.4 11.896a5.616 5.616 0 100-11.233 5.616 5.616 0 000 11.232zM16.28 10.4v-.8c0-.252.204-.456.456-.456h2.808c.253 0 .457.204.457.457v.799a.457.457 0 01-.457.456h-2.808a.457.457 0 01-.456-.456zm-5.88 9.6a.457.457 0 00.457-.457v-2.808a.457.457 0 00-.456-.456h-.8a.457.457 0 00-.456.456v2.808c0 .253.204.457.457.457h.799zm-7.134-9.144H.457A.457.457 0 010 10.4v-.8c0-.252.204-.456.457-.456h2.808c.252 0 .456.204.456.457v.799a.457.457 0 01-.456.456zm11.457-5.013a.457.457 0 00.646 0l1.986-1.986a.457.457 0 000-.646l-.566-.565a.457.457 0 00-.645 0l-1.986 1.986a.457.457 0 000 .646l.565.565zm2.632 10.946l-.565.565a.457.457 0 01-.646 0l-1.986-1.986a.457.457 0 010-.646l.565-.565a.457.457 0 01.646 0l1.986 1.986a.457.457 0 010 .646zm-13.497.565l1.986-1.986a.456.456 0 000-.646l-.565-.565a.457.457 0 00-.646 0l-1.986 1.986a.457.457 0 000 .646l.566.565a.457.457 0 00.645 0zm1.42-11.511a.457.457 0 01-.645 0L2.646 3.857a.457.457 0 010-.646l.566-.565a.457.457 0 01.645 0l1.986 1.986a.457.457 0 010 .646l-.565.565z" fill="#fff"/></svg></svg>