<?xml version="1.0" encoding="utf-8"?><svg width="102" height="168" viewBox="0 0 102 168" xmlns="http://www.w3.org/2000/svg" xmlns:xlink="http://www.w3.org/1999/xlink"><svg width="102" height="84" fill="none" viewBox="0 0 102 84" id="quote-icon" xmlns="http://www.w3.org/2000/svg"><path d="M68.683 45.195c-.485-1.712-.731-3.68-.731-5.91 0-6.076 2.31-12.076 6.986-18.007 4.897-5.94 10.638-10.28 17.222-13.03l.495-.208-.24-.479-2.904-5.785-.216-.432-.44.202c-11.25 5.174-19.718 12.087-25.37 20.752h0l-.005.008c-5.43 8.656-8.141 18.391-8.141 29.194 0 8.43 1.844 15.6 5.56 21.481C65.297 79.99 71.805 83.5 80.356 83.5c5.93 0 10.898-1.975 14.869-5.931 4.18-4.166 6.276-9.222 6.276-15.14 0-6.33-2.085-11.4-6.286-15.15-3.97-3.95-8.934-5.922-14.86-5.922-4.377 0-8.273 1.28-11.67 3.838zm-54.839 0c-.485-1.712-.731-3.68-.731-5.91 0-6.076 2.31-12.076 6.986-18.007 4.898-5.94 10.638-10.28 17.223-13.03l.494-.208-.24-.479-2.903-5.785-.217-.432-.44.202C22.767 6.72 14.299 13.633 8.647 22.298h0l-.005.008C3.211 30.962.5 40.697.5 51.5c0 8.43 1.845 15.6 5.561 21.481C10.458 79.99 16.965 83.5 25.516 83.5c5.93 0 10.898-1.975 14.87-5.931 4.18-4.166 6.275-9.222 6.275-15.14 0-6.33-2.085-11.4-6.286-15.15-3.969-3.95-8.934-5.922-14.859-5.922-4.377 0-8.274 1.28-11.671 3.838z" stroke="url(#apaint0_linear)"/><defs><linearGradient id="apaint0_linear" x1=".75" y1="55.409" x2="121.357" y2="72.969" gradientUnits="userSpaceOnUse"><stop stop-color="#F1897B"/><stop offset="1" stop-color="#F1897B" stop-opacity="0"/></linearGradient></defs></svg><svg width="102" height="84" fill="none" viewBox="0 0 102 84" id="quote-icon-night" y="84" xmlns="http://www.w3.org/2000/svg"><path d="M68.683 45.195c-.485-1.712-.731-3.68-.731-5.91 0-6.076 2.31-12.076 6.986-18.007 4.897-5.94 10.638-10.28 17.222-13.03l.495-.208-.24-.479-2.904-5.785-.216-.432-.44.202c-11.25 5.174-19.718 12.087-25.37 20.752h0l-.005.008c-5.43 8.656-8.141 18.391-8.141 29.194 0 8.43 1.844 15.6 5.56 21.481C65.297 79.99 71.805 83.5 80.356 83.5c5.93 0 10.898-1.975 14.869-5.931 4.18-4.166 6.276-9.222 6.276-15.14 0-6.33-2.085-11.4-6.286-15.15-3.97-3.95-8.934-5.922-14.86-5.922-4.377 0-8.273 1.28-11.67 3.838zm-54.839 0c-.485-1.712-.731-3.68-.731-5.91 0-6.076 2.31-12.076 6.986-18.007 4.898-5.94 10.638-10.28 17.223-13.03l.494-.208-.24-.479-2.903-5.785-.217-.432-.44.202C22.767 6.72 14.299 13.633 8.647 22.298h0l-.005.008C3.211 30.962.5 40.697.5 51.5c0 8.43 1.845 15.6 5.561 21.481C10.458 79.99 16.965 83.5 25.516 83.5c5.93 0 10.898-1.975 14.87-5.931 4.18-4.166 6.275-9.222 6.275-15.14 0-6.33-2.085-11.4-6.286-15.15-3.969-3.95-8.934-5.922-14.859-5.922-4.377 0-8.274 1.28-11.671 3.838z" stroke="url(#bpaint0_linear)"/><defs><linearGradient id="bpaint0_linear" x1=".75" y1="55.409" x2="121.357" y2="72.969" gradientUnits="userSpaceOnUse"><stop stop-color="#53F3CD"/><stop offset="1" stop-color="#53F3CD" stop-opacity="0"/></linearGradient></defs></svg></svg>