<?xml version="1.0" encoding="utf-8"?><svg width="18" height="48" viewBox="0 0 18 48" xmlns="http://www.w3.org/2000/svg" xmlns:xlink="http://www.w3.org/1999/xlink"><svg width="13" height="12" fill="none" viewBox="0 0 13 12" id="icon" xmlns="http://www.w3.org/2000/svg"><path fill-rule="evenodd" clip-rule="evenodd" d="M8.586 7H0V5h8.586L5.293 1.707 6.707.293 12.414 6l-5.707 5.707-1.414-1.414L8.586 7z" fill="#fff"/></svg><svg width="18" height="18" fill="none" viewBox="0 0 18 18" id="sign" y="12" xmlns="http://www.w3.org/2000/svg"><path fill-rule="evenodd" clip-rule="evenodd" d="M9 18a9 9 0 01-9-9 9 9 0 019-9 9 9 0 019 9 9 9 0 01-9 9zm4.044-10.114c.176-1.179-.722-1.813-1.95-2.236l.399-1.597-.972-.242-.388 1.555c-.255-.064-.518-.123-.78-.183l.392-1.566-.972-.242-.399 1.597c-.211-.048-.42-.096-.62-.146V4.82l-1.34-.335-.26 1.038s.723.166.707.176c.394.098.465.359.453.566l-.453 1.82a.864.864 0 01.101.031l-.103-.025-.636 2.55c-.048.119-.17.298-.446.23.01.014-.706-.176-.706-.176l-.483 1.113 1.266.315.692.179-.402 1.615.972.242.398-1.597c.265.071.523.138.775.2l-.397 1.591.972.242.402-1.612c1.658.314 2.905.188 3.43-1.312.423-1.207-.021-1.904-.894-2.358.636-.146 1.114-.564 1.242-1.428zm-2.222 3.115c-.3 1.208-2.333.555-2.993.391l.535-2.14c.66.165 2.772.49 2.458 1.75zm.3-3.132c-.273 1.098-1.965.54-2.514.403l.484-1.94c.549.136 2.317.391 2.03 1.537z" fill="#fff"/></svg><svg width="18" height="18" fill="none" viewBox="0 0 18 18" id="usdt" y="30" xmlns="http://www.w3.org/2000/svg"><path fill-rule="evenodd" clip-rule="evenodd" d="M9 18a9 9 0 01-9-9 9 9 0 019-9 9 9 0 019 9 9 9 0 01-9 9zm1.081-10.241V6.428h3.046v-2.03H4.835v2.03H7.88v1.33c-2.475.114-4.336.604-4.336 1.191 0 .588 1.861 1.078 4.336 1.192v4.265h2.201V10.14c2.471-.114 4.328-.604 4.328-1.19 0-.587-1.857-1.077-4.328-1.191zm0 2.019v-.001c-.062.004-.38.023-1.092.023-.568 0-.968-.016-1.109-.023v.002c-2.187-.097-3.82-.477-3.82-.933 0-.455 1.633-.836 3.82-.934V9.4c.143.01.552.035 1.118.035.68 0 1.02-.028 1.083-.034V7.913c2.183.098 3.811.478 3.811.933 0 .456-1.628.835-3.81.932z" fill="#fff"/></svg></svg>