<svg width="18" height="18" viewBox="0 0 18 18" fill="none" xmlns="http://www.w3.org/2000/svg">
<path fill-rule="evenodd" clip-rule="evenodd" d="M9 18C4.02919 18 0 13.9708 0 9C0 4.02919 4.02919 0 9 0C13.9708 0 18 4.02919 18 9C18 13.9708 13.9708 18 9 18ZM13.0438 7.88625C13.2204 6.70725 12.3221 6.07331 11.0948 5.65031L11.493 4.05281L10.521 3.81094L10.1329 5.36625C9.8775 5.30212 9.61537 5.2425 9.35381 5.18287L9.74475 3.61744L8.77275 3.375L8.3745 4.97194C8.163 4.92356 7.95487 4.87631 7.7535 4.82569L7.75463 4.82062L6.41363 4.48594L6.15488 5.52431C6.15488 5.52431 6.87656 5.68969 6.86137 5.69981C7.25513 5.79825 7.326 6.05869 7.31419 6.26569L6.86081 8.08537C6.88781 8.09212 6.92269 8.10225 6.96206 8.11744L6.85913 8.09212L6.2235 10.6414C6.17513 10.7606 6.05306 10.9401 5.77744 10.872C5.78756 10.8861 5.07094 10.6959 5.07094 10.6959L4.58831 11.8086L5.85394 12.1241C6.08906 12.1832 6.31969 12.2451 6.54637 12.303L6.14419 13.9185L7.11562 14.1604L7.51388 12.5629C7.77938 12.6343 8.037 12.7007 8.289 12.7637L7.89187 14.3544L8.86388 14.5963L9.26606 12.9842C10.9243 13.2981 12.1708 13.1715 12.6956 11.6719C13.1186 10.4648 12.6748 9.76781 11.8024 9.31388C12.438 9.16763 12.9161 8.74969 13.0438 7.88625ZM10.8219 11.0014C10.5221 12.2091 8.48869 11.556 7.82944 11.3923L8.36381 9.252C9.02306 9.41681 11.1364 9.7425 10.8219 11.0014ZM11.1229 7.86881C10.8489 8.96737 9.15694 8.40881 8.6085 8.27213L9.09225 6.3315C9.64069 6.46819 11.4086 6.723 11.1229 7.86881Z" fill="white"/>
</svg>
