<svg width="102" height="84" viewBox="0 0 102 84" fill="none" xmlns="http://www.w3.org/2000/svg">
<path d="M68.6832 45.1953C68.198 43.4828 67.9516 41.5149 67.9516 39.2857C67.9516 33.2091 70.2619 27.2093 74.9378 21.278C79.8355 15.3381 85.5761 10.9984 92.1605 8.24707L92.655 8.04045L92.4146 7.56148L89.5114 1.77575L89.2947 1.34382L88.8556 1.54574C77.6047 6.71993 69.1369 13.6332 63.4845 22.2983L63.4844 22.2982L63.4797 22.3058C58.0504 30.9616 55.3387 40.6975 55.3387 51.5C55.3387 59.9307 57.1833 67.0997 60.8999 72.9814C65.2964 79.9897 71.8038 83.5 80.3549 83.5C86.2844 83.5 91.2529 81.5253 95.2239 77.5685C99.4044 73.4029 101.5 68.3468 101.5 62.4286C101.5 56.0983 99.4146 51.0291 95.2141 47.279C91.2448 43.3286 86.2796 41.3571 80.3549 41.3571C75.9772 41.3571 72.081 42.6371 68.6832 45.1953ZM13.8445 45.1953C13.3593 43.4828 13.1129 41.5149 13.1129 39.2857C13.1129 33.2091 15.4232 27.2094 20.0989 21.2782C24.9967 15.3381 30.7374 10.9984 37.3218 8.24707L37.8163 8.04045L37.5759 7.56148L34.6727 1.77575L34.456 1.34382L34.0169 1.54574C22.766 6.71993 14.2982 13.6332 8.64574 22.2983L8.64568 22.2982L8.64095 22.3058C3.21167 30.9616 0.5 40.6975 0.5 51.5C0.5 59.9306 2.34459 67.0996 6.0611 72.9812C10.4576 79.9896 16.965 83.5 25.5161 83.5C31.4457 83.5 36.4142 81.5253 40.3852 77.5685C44.5657 73.4029 46.6613 68.3468 46.6613 62.4286C46.6613 56.0983 44.5758 51.0291 40.3754 47.2789C36.406 43.3286 31.4408 41.3571 25.5161 41.3571C21.1385 41.3571 17.2423 42.6371 13.8445 45.1953Z" stroke="url(#paint0_linear)"/>
<defs>
<linearGradient id="paint0_linear" x1="0.750061" y1="55.4086" x2="121.357" y2="72.9687" gradientUnits="userSpaceOnUse">
<stop stop-color="#53F3CD"/>
<stop offset="1" stop-color="#53F3CD" stop-opacity="0"/>
</linearGradient>
</defs>
</svg>
