<svg width="105" height="32" viewBox="0 0 105 32" fill="none" xmlns="http://www.w3.org/2000/svg"><path d="M53 11.94c-.093.153-.19.267-.29.34a.623.623 0 01-.37.1.973.973 0 01-.48-.15 8.353 8.353 0 00-.59-.34 5.385 5.385 0 00-.78-.33 3.01 3.01 0 00-1.03-.16c-.693 0-1.213.157-1.56.47-.347.307-.52.71-.52 1.21 0 .32.093.587.28.8.193.207.443.387.75.54.313.153.667.29 1.06.41s.797.253 1.21.4c.413.14.817.307 1.21.5s.743.437 1.05.73c.313.293.563.653.75 1.08.193.42.29.933.29 1.54 0 .66-.117 1.28-.35 1.86a4.402 4.402 0 01-.99 1.51c-.433.427-.97.763-1.61 1.01-.633.247-1.353.37-2.16.37-.46 0-.92-.047-1.38-.14a8.118 8.118 0 01-1.32-.39 7.37 7.37 0 01-1.19-.6 5.251 5.251 0 01-.98-.78l.88-1.42a.84.84 0 01.29-.26.718.718 0 01.38-.11c.18 0 .37.067.57.2.2.133.43.28.69.44.26.16.56.307.9.44.347.133.76.2 1.24.2.7 0 1.24-.16 1.62-.48.387-.32.58-.797.58-1.43 0-.367-.097-.663-.29-.89a2.235 2.235 0 00-.74-.57 5.667 5.667 0 00-1.05-.39 40.187 40.187 0 01-1.21-.37 9.918 9.918 0 01-1.21-.48 3.745 3.745 0 01-1.05-.74 3.57 3.57 0 01-.75-1.14c-.187-.453-.28-1.017-.28-1.69a4.009 4.009 0 011.26-2.92c.413-.393.92-.71 1.52-.95.607-.24 1.3-.36 2.08-.36.873 0 1.68.137 2.42.41.747.267 1.377.64 1.89 1.12L53 11.94zm18.776 4.47c0 1.06-.18 2.043-.54 2.95a6.812 6.812 0 01-1.51 2.35 6.99 6.99 0 01-2.34 1.56c-.914.373-1.927.56-3.04.56-1.114 0-2.127-.187-3.04-.56a7.103 7.103 0 01-2.35-1.56 6.937 6.937 0 01-1.52-2.35c-.354-.907-.53-1.89-.53-2.95 0-1.06.176-2.04.53-2.94.36-.907.866-1.69 1.52-2.35a6.978 6.978 0 012.35-1.55c.913-.38 1.926-.57 3.04-.57 1.113 0 2.126.19 3.04.57a6.796 6.796 0 012.34 1.56 6.812 6.812 0 011.51 2.35c.36.9.54 1.877.54 2.93zm-3.07 0c0-.76-.1-1.44-.3-2.04-.2-.607-.49-1.12-.87-1.54a3.594 3.594 0 00-1.37-.97c-.534-.227-1.14-.34-1.82-.34-.68 0-1.29.113-1.83.34-.54.22-1 .543-1.38.97a4.32 4.32 0 00-.86 1.54c-.2.6-.3 1.28-.3 2.04 0 .767.1 1.453.3 2.06.2.6.486 1.11.86 1.53.38.42.84.743 1.38.97.54.22 1.15.33 1.83.33.68 0 1.286-.11 1.82-.33.54-.227.996-.55 1.37-.97.38-.42.67-.93.87-1.53.2-.607.3-1.293.3-2.06zm15.471 4.82v2.44h-8.61V9.16h3v12.07h5.61zm6.459 2.44h-3.02V9.16h3.02v14.51zm12.494-11.73c-.093.153-.19.267-.29.34a.621.621 0 01-.37.1.978.978 0 01-.48-.15 8.132 8.132 0 00-.59-.34 5.32 5.32 0 00-.78-.33 3.006 3.006 0 00-1.03-.16c-.693 0-1.213.157-1.56.47-.346.307-.52.71-.52 1.21 0 .32.094.587.28.8.194.207.444.387.75.54.314.153.667.29 1.06.41.394.12.797.253 1.21.4.414.14.817.307 1.21.5.394.193.744.437 1.05.73.314.293.564.653.75 1.08.194.42.29.933.29 1.54 0 .66-.116 1.28-.35 1.86a4.382 4.382 0 01-.99 1.51c-.433.427-.97.763-1.61 1.01-.633.247-1.353.37-2.16.37-.46 0-.92-.047-1.38-.14a8.112 8.112 0 01-1.32-.39 7.37 7.37 0 01-1.19-.6 5.248 5.248 0 01-.98-.78l.88-1.42a.84.84 0 01.29-.26.717.717 0 01.38-.11c.18 0 .37.067.57.2.2.133.43.28.69.44.26.16.56.307.9.44.347.133.76.2 1.24.2.7 0 1.24-.16 1.62-.48.387-.32.58-.797.58-1.43 0-.367-.096-.663-.29-.89a2.225 2.225 0 00-.74-.57 5.648 5.648 0 00-1.05-.39 40.099 40.099 0 01-1.21-.37 9.912 9.912 0 01-1.21-.48 3.742 3.742 0 01-1.05-.74 3.57 3.57 0 01-.75-1.14c-.186-.453-.28-1.017-.28-1.69a4.007 4.007 0 011.26-2.92c.414-.393.92-.71 1.52-.95.607-.24 1.3-.36 2.08-.36.874 0 1.68.137 2.42.41.747.267 1.377.64 1.89 1.12l-.74 1.41z" fill="#fff"/><path fill-rule="evenodd" clip-rule="evenodd" d="M21.076 4.75L23.5 7.174 30.674 0h-4.91l-4.688 4.75zM32 8.112L28.576 4.75 32 1.326v6.786zM6.073 19.749l6.174-6.173 2.424 2.423-6.174 6.174-2.424-2.424zm14.999.002l6.173-6.174 2.424 2.424-6.173 6.173-2.424-2.424zm-5.076-2.425l-2.424 2.424 6.174 6.173 2.423-2.424-6.173-6.173zm-3.746 3.75l6.174 6.174L16 29.737 9.826 23.5l2.424-2.424zm18.813-3.75l.937.937v4.849l-3.424-3.362 2.486-2.424zm-28.74-1.327l6.174-6.174 2.424 2.424-6.174 6.174-2.424-2.424zm21.172-6.172L17.323 16l2.424 2.424 6.173-6.173-2.424-2.424zm3.754-3.751L32 10.763v4.849L24.826 8.5l2.424-2.424zM13.576 4.75l6.174 6.174L22.174 8.5 16 2.263 13.576 4.75zm-1.328 1.327L9.824 8.5l6.173 6.173 2.424-2.424-6.173-6.173zM25.924 27.25L23.5 24.826 16.388 32h4.849l4.687-4.75zM12.25 28.576l2.424 2.486-.937.938H8.888l3.362-3.424zm-1.326-1.326L8.5 24.826 1.326 32h4.91l4.688-4.75zm13.902-3.75l2.424-2.424L32 25.763v4.911L24.826 23.5zM0 23.888v6.786l3.424-3.424L0 23.888zM23.888 32l3.362-3.424L30.674 32h-6.786zM17.326.937l2.424 2.487L23.112 0h-4.849l-.937.938zM8.112 0L4.75 3.424 1.326 0h6.786zM4.75 25.924L7.174 23.5 0 16.388v4.849l4.75 4.687zM8.5 7.174L6.076 4.75 10.763 0h4.849L8.5 7.174zm-3.75 3.75L7.174 8.5 0 1.326v4.91l4.75 4.688zM3.424 12.25L.938 14.674 0 13.737V8.888l3.424 3.362z" fill="#fff"/></svg>