<svg width="18" height="18" viewBox="0 0 18 18" fill="none" xmlns="http://www.w3.org/2000/svg">
<path d="M15.5658 15.3296C16.8024 14.0925 17.6092 12.5883 17.9863 11.0027C18.0944 10.5485 17.5363 10.2418 17.2072 10.5728C17.2031 10.5768 17.1991 10.5809 17.195 10.5849C14.4436 13.3374 9.94955 13.2843 7.26525 10.4257C4.73457 7.7307 4.76779 3.5467 7.33766 0.889053C7.37007 0.855546 7.40272 0.822435 7.43564 0.789718C7.76573 0.461658 7.45721 -0.0940025 7.00452 0.0136152C5.43353 0.387093 3.94243 1.1826 2.7118 2.40055C-0.886352 5.9617 -0.906618 11.7354 2.66754 15.3206C6.22607 18.8902 12.0035 18.8931 15.5658 15.3296Z" fill="white"/>
</svg>
