<svg width="20" height="20" viewBox="0 0 20 20" fill="none" xmlns="http://www.w3.org/2000/svg">
<path fill-rule="evenodd" clip-rule="evenodd" d="M9.60053 3.72147H10.3996C10.6518 3.72147 10.8562 3.51704 10.8562 3.26485V0.456622C10.8562 0.20443 10.6518 0 10.3996 0H9.60053C9.34834 0 9.14391 0.20443 9.14391 0.456622V3.26485C9.14391 3.51704 9.34834 3.72147 9.60053 3.72147ZM10.0001 15.6165C13.102 15.6165 15.6165 13.102 15.6165 10.0001C15.6165 6.89821 13.102 4.38364 10.0001 4.38364C6.89821 4.38364 4.38364 6.89821 4.38364 10.0001C4.38364 13.102 6.89821 15.6165 10.0001 15.6165ZM16.2785 10.3996V9.60053C16.2785 9.34834 16.483 9.14391 16.7352 9.14391H19.5434C19.7956 9.14391 20 9.34834 20 9.60053V10.3996C20 10.6518 19.7956 10.8562 19.5434 10.8562H16.7352C16.483 10.8562 16.2785 10.6518 16.2785 10.3996ZM10.3996 20C10.6518 20 10.8562 19.7956 10.8562 19.5434V16.7352C10.8562 16.483 10.6518 16.2785 10.3996 16.2785H9.60053C9.34834 16.2785 9.14391 16.483 9.14391 16.7352V19.5434C9.14391 19.7956 9.34834 20 9.60053 20H10.3996ZM3.26485 10.8562H0.456622C0.20443 10.8562 0 10.6518 0 10.3996V9.60053C0 9.34834 0.20443 9.14391 0.456622 9.14391H3.26485C3.51704 9.14391 3.72147 9.34834 3.72147 9.60053V10.3996C3.72147 10.6518 3.51704 10.8562 3.26485 10.8562ZM14.722 5.84297C14.9003 6.02129 15.1894 6.02131 15.3677 5.84297L17.3535 3.85726C17.5318 3.6789 17.5318 3.38981 17.3535 3.2115L16.7884 2.64645C16.6101 2.46812 16.321 2.46812 16.1427 2.64645L14.1569 4.63217C13.9786 4.81048 13.9786 5.09961 14.1569 5.27793L14.722 5.84297ZM17.3538 16.7887L16.7888 17.3538C16.6104 17.5321 16.3213 17.5321 16.143 17.3538L14.1572 15.368C13.9789 15.1897 13.9789 14.9006 14.1572 14.7223L14.7223 14.1572C14.9006 13.9789 15.1897 13.9789 15.3681 14.1572L17.3538 16.1429C17.5321 16.3213 17.5321 16.6104 17.3538 16.7887ZM3.85726 17.3538L5.843 15.368C6.02135 15.1897 6.02135 14.9006 5.843 14.7223L5.27795 14.1572C5.09961 13.9789 4.8105 13.9789 4.63219 14.1572L2.64645 16.1429C2.46812 16.3213 2.46812 16.6104 2.64645 16.7887L3.2115 17.3538C3.38981 17.5321 3.67892 17.5321 3.85726 17.3538ZM5.27794 5.84297C5.09963 6.02129 4.81052 6.02131 4.63219 5.84297L2.64645 3.85726C2.46812 3.67895 2.46812 3.38981 2.64645 3.2115L3.2115 2.64645C3.38981 2.46812 3.67892 2.46812 3.85726 2.64645L5.84299 4.63217C6.02135 4.81048 6.02135 5.09961 5.84299 5.27793L5.27794 5.84297Z" fill="white"/>
</svg>
